# xmcd
#
# Track frame offsets: 
#        150
#        12286
#        34652
#        48990
#        63493
#        77950
#        96882
#        120405
#        139934
#        158185
#        177918
#        193443
#        202585
#        222812
#        253440
#        278525
#        296513
#        311795
#        330807
#
# Disc length: 4703 seconds
#
# Revision: 0
# Processed by: cddbd v1.4PL0 Copyright (c) Steve Scherf et al.
# Submitted via: ExactAudioCopy v0.95a3
#
DISCID=12125d13
DTITLE=Tracy Chapman - Greatest Hits
DYEAR=1900
DGENRE=Blues
TTITLE0=Talkin' Bout A Revolution
TTITLE1=Fast Car
TTITLE2=For You
TTITLE3=Baby Can I Hold You
TTITLE4=For My Lover
TTITLE5=Cross Roads
TTITLE6=Subcity
TTITLE7=A Hundred Years
TTITLE8=Freedom Now
TTITLE9=Bang Bang Bang
TTITLE10=So
TTITLE11=Woman's Work
TTITLE12=Give Me One Reason
TTITLE13=I'm Ready
TTITLE14=New Beginning
TTITLE15=Telling Stories
TTITLE16=Speak The Word
TTITLE17=It's Ok
TTITLE18=Wedding Song
EXTD=
EXTT0=
EXTT1=
EXTT2=
EXTT3=
EXTT4=
EXTT5=
EXTT6=
EXTT7=
EXTT8=
EXTT9=
EXTT10=
EXTT11=
EXTT12=
EXTT13=
EXTT14=
EXTT15=
EXTT16=
EXTT17=
EXTT18=
PLAYORDER=
